<svg xmlns="http://www.w3.org/2000/svg" width="76" height="65" viewBox="0 0 76 65" fill="none">
  <g clip-path="url(#clip0_3_3345)">
    <path d="M56.97 31.6036C56.6614 29.9959 55.4922 26.7672 53.1914 26.2852C50.8907 25.8033 47.0573 24.8225 42.3186 27.0402C37.58 29.2578 36.637 30.397 36.637 30.397C38.0874 27.8524 44.1153 25.4595 45.1474 23.7474C46.1795 22.0352 46.4503 16.9764 44.4582 14.6071C42.466 12.2377 40.443 11.6749 40.1859 10.593C39.9321 9.50776 37.436 9.07973 36.3524 7.37772C35.2689 5.6757 36.4176 4.82975 34.47 5.02523C33.1671 5.15668 31.7887 7.03731 29.5531 7.41142C27.3175 7.78553 24.1904 9.30217 23.4018 10.8896C22.9149 11.8704 22.1022 15.4362 22.0474 18.948C23.6383 23.4811 25.8911 27.8693 28.1438 31.0441C28.1198 30.5655 28.0238 30.0633 27.9244 29.6286C27.6466 28.4422 25.1916 20.7174 26.1448 20.0299C27.098 19.3457 29.4674 27.4008 29.4674 27.4008C29.4674 27.4008 30.0331 21.0208 31.4835 17.7212C32.9339 14.4217 36.0919 14.3307 35.0461 15.972C34.0003 17.6167 31.6481 27.2154 31.6481 27.2154C31.6481 27.2154 33.5168 25.6954 35.1524 24.5428C36.7879 23.3901 38.1251 24.3372 36.4896 25.4898C34.854 26.6425 30.4 35.4626 33.2768 34.1111C34.4049 33.582 41.0157 31.2699 42.4489 31.4553C44.4308 31.7114 35.6358 34.9705 37.1925 34.5256C39.8739 33.7606 48.2539 33.5988 46.3475 34.9672C44.4445 36.3389 37.5114 35.257 36.0027 35.6008C34.494 35.9446 32.927 37.3938 36.6782 37.7915C40.4293 38.1892 46.9304 39.3789 42.3769 39.6317C37.8268 39.8845 32.135 37.3904 31.4527 39.9182C31.0961 41.236 37.4291 45.887 36.6405 47.9429C35.8518 49.9988 29.1073 38.7318 28.8159 42.2369C28.5279 45.7421 29.7897 51.1076 28.2433 51.3031C26.7003 51.4986 27.1323 45.9005 27.1426 43.2413C27.1529 40.5821 28.7782 40.0563 26.2134 40.6394C23.6486 41.2225 20.957 46.679 20.933 47.9328C20.909 49.1865 19.9009 53.0119 18.2962 48.2193C16.6915 43.4267 25.8979 39.3014 25.6065 38.7453C25.315 38.1858 17.5727 40.4136 16.3898 39.4328C15.2034 38.4521 23.2852 38.3341 23.2749 36.9321C23.2612 35.53 17.3773 34.8357 15.0183 34.2762C12.6627 33.7168 8.53778 33.0933 11.9392 32.008C15.3406 30.9228 25.6888 36.3861 24.931 34.5256C24.1767 32.6652 18.0151 30.6902 18.718 30.0903C19.8975 29.086 21.8622 30.0229 23.6349 31.0812C23.1137 30.1645 22.5891 29.1769 22.0919 28.1423C21.5433 27.0031 20.9844 25.7224 20.4667 24.3304C15.8309 20.8219 8.91838 18.8334 6.45305 21.6578C3.60027 24.9236 3.63113 26.7975 1.92014 27.6569C0.209157 28.5164 1.88928 29.2747 0.888065 31.1149C-0.113153 32.9551 -0.661766 34.6908 1.35439 36.5815C3.37054 38.4723 4.39576 42.5403 7.87945 42.8234C11.3631 43.1065 12.4501 41.9201 12.4501 41.9201C7.66686 48.3136 10.5676 51.3469 12.09 53.7533C13.6125 56.1597 17.5693 59.6278 18.3099 61.6062C19.0506 63.5879 22.7366 64.1609 23.0452 64.8956C23.3538 65.6303 23.0623 62.0713 24.499 61.2085C25.9357 60.3457 27.7495 52.9478 27.7495 52.9478C29.5462 57.9797 31.6447 59.921 33.5785 60.0187C35.5158 60.1165 37.4702 60.8815 37.772 62.1555C38.0703 63.4295 39.0784 63.0655 40.8236 61.1916C42.5689 59.3177 45.1543 59.2672 46.0423 57.5213C46.9304 55.7755 48.1956 50.9897 46.7864 48.4889C45.3771 45.9881 43.7656 44.0704 43.7656 44.0704C50.1775 46.6419 54.9984 45.3444 55.8625 41.1854C56.7265 37.0264 57.2512 34.893 58.2729 34.5931C59.2947 34.2931 57.2649 33.2112 56.9529 31.6036H56.97Z" fill="#FF7171"/>
    <path d="M19.2254 9.78418C19.9695 18.574 25.6785 30.5049 30.5268 34.8897C31.8915 36.9085 28.7713 36.5614 28.1575 36.3288C27.5438 36.0963 17.2881 22.8071 19.2288 9.78418H19.2254Z" fill="#FF7171"/>
    <path d="M16.3521 15.3113C16.2766 14.8294 16.6127 14.3778 17.1064 14.3036C17.5967 14.2295 18.0562 14.5598 18.1316 15.0451C18.2071 15.527 17.871 15.9787 17.3773 16.0528C16.8835 16.127 16.4275 15.7967 16.3521 15.3113Z" fill="#FF7171"/>
    <path d="M20.5455 10.6839C20.4701 10.2019 20.8061 9.75031 21.2999 9.67617C21.7902 9.60202 22.2497 9.93231 22.3251 10.4176C22.4005 10.8996 22.0645 11.3512 21.5708 11.4254C21.0804 11.4995 20.621 11.1658 20.5455 10.6839Z" fill="#FF7171"/>
    <path d="M13.9759 14.1756C13.9005 13.6936 14.2365 13.242 14.7303 13.1679C15.2206 13.0937 15.68 13.424 15.7555 13.9093C15.8309 14.3913 15.4949 14.8429 15.0011 14.9171C14.5108 14.9912 14.0513 14.6575 13.9759 14.1756Z" fill="#FF7171"/>
    <path d="M15.6457 10.1246C15.5703 9.64261 15.9098 9.19099 16.4001 9.11684C16.8904 9.04269 17.3499 9.37299 17.4253 9.85831C17.5007 10.3403 17.1647 10.7919 16.671 10.866C16.1806 10.9402 15.7212 10.6099 15.6457 10.1246Z" fill="#FF7171"/>
    <path d="M17.9876 8.00121C17.8882 7.36422 18.3339 6.77105 18.9786 6.67331C19.6266 6.57557 20.2301 7.01371 20.3295 7.64733C20.429 8.28432 19.9832 8.8775 19.3386 8.97524C18.694 9.07298 18.0871 8.63483 17.9876 8.00121Z" fill="#FF7171"/>
    <path d="M16.6744 12.7939C16.6298 12.4973 16.8356 12.2243 17.1339 12.1771C17.4356 12.1333 17.7133 12.3355 17.7613 12.6287C17.8093 12.9219 17.6002 13.1983 17.3019 13.2455C17.0001 13.2893 16.7224 13.0871 16.6744 12.7939Z" fill="#FF7171"/>
    <path d="M20.717 13.2353C20.6724 12.9387 20.8782 12.6657 21.1765 12.6185C21.4782 12.5747 21.7559 12.7769 21.8039 13.0701C21.8485 13.3667 21.6428 13.6397 21.3445 13.6869C21.0427 13.7307 20.765 13.5285 20.717 13.2353Z" fill="#FF7171"/>
    <path d="M14.0993 11.3076C14.0616 11.0582 14.233 10.8256 14.4868 10.7886C14.7405 10.7515 14.9771 10.92 15.0148 11.1694C15.0525 11.4188 14.8811 11.6514 14.6274 11.6884C14.3736 11.7255 14.137 11.557 14.0993 11.3076Z" fill="#FF7171"/>
    <path d="M20.8507 15.3181C20.813 15.0687 20.9844 14.8361 21.2382 14.7991C21.4919 14.762 21.7285 14.9305 21.7662 15.1799C21.8039 15.4293 21.6325 15.6619 21.3788 15.6989C21.125 15.736 20.8884 15.5675 20.8507 15.3181Z" fill="#FF7171"/>
    <path d="M21.629 8.3652C21.5913 8.1158 21.7628 7.88325 22.0165 7.84617C22.2702 7.8091 22.5068 7.97762 22.5445 8.22702C22.5823 8.47642 22.4108 8.70898 22.1571 8.74605C21.9033 8.78312 21.6668 8.61461 21.629 8.3652Z" fill="#FF7171"/>
    <path d="M63.3682 40.4303C58.9827 40.1775 57.8786 41.4279 57.3335 43.4265C56.7848 45.4251 51.6622 47.9663 49.5432 47.0732C49.5432 47.0732 50.6129 52.705 54.1275 56.2843C56.8466 59.0547 63.4505 57.6661 68.3537 55.3406C69.1561 54.9597 66.3856 54.4205 67.3525 53.6049C68.1068 52.9713 71.4705 52.7286 71.93 52.4893C76.5726 50.0593 75.976 46.4429 75.976 46.4429C71.3608 47.3664 67.7537 40.6864 63.3682 40.4337V40.4303ZM66.9513 48.3337C67.5994 49.7998 68.0691 50.4772 70.1573 51.6838C69.2212 51.6198 67.5376 51.7579 66.2793 48.3337C64.486 48.3337 62.8847 48.391 61.4618 48.4786C62.2367 50.794 62.7201 51.9163 65.9535 53.7835C64.558 53.6858 62.8573 53.7768 60.6114 48.5359C58.6707 48.6775 57.1003 48.8797 55.8899 49.0752C56.7746 51.3602 58.4032 52.8634 61.5783 54.6969C60.2034 54.5991 57.3746 54.2823 55.0841 49.2167C53.476 49.5133 52.6977 49.7728 52.6977 49.7728L51.9433 48.8763C52.8828 48.664 54.0315 48.4685 55.3104 48.2966C56.6443 45.6947 58.513 44.3264 61.3555 44.3567C61.3555 44.3567 56.9871 46.2037 56.3905 48.1618C57.8203 47.9967 59.3736 47.8652 60.9611 47.7709C62.295 45.2027 64.1568 43.8512 66.9787 43.8849C66.9787 43.8849 62.5693 45.7487 62.0035 47.7169C63.3956 47.6495 64.8014 47.6158 66.1558 47.6226C67.085 45.752 68.3949 44.7645 70.4041 44.7881C70.4041 44.7881 67.0679 46.1969 66.917 47.6293C70.435 49.9144 73.5964 49.1729 75.2182 48.7044C72.1186 48.455 69.3686 48.3472 66.941 48.3371L66.9513 48.3337Z" fill="#95CC64"/>
    <path d="M61.9864 0.576419C61.9864 0.576419 58.8319 -1.37163 54.7447 1.8841C54.3401 2.20765 52.804 5.15668 51.9159 5.59146C50.7775 6.15093 51.3467 3.43108 50.6781 4.01078C46.5875 7.54624 45.3326 11.1862 46.8687 14.7284C48.854 19.3019 47.8253 23.7642 47.8253 23.7642C50.6164 22.5105 61.2389 18.3987 62.7064 14.3307C64.1774 10.2627 59.3188 4.39499 61.983 0.576419H61.9864ZM59.5759 0.370829C59.6136 2.09643 58.6913 5.06569 57.3506 8.30456C58.753 8.72248 61.3726 6.25204 61.3726 6.25204C60.6114 8.07875 59.1782 8.88089 57.0626 8.99211C56.538 10.2223 55.9585 11.4794 55.355 12.7163C57.4192 12.9725 60.8823 9.70662 60.8823 9.70662C59.8125 12.2748 57.8204 13.4342 54.8956 13.6398C54.1892 15.0418 53.4589 16.3967 52.7491 17.6269C54.8167 17.8493 58.249 14.6138 58.249 14.6138C57.1723 17.1988 55.163 18.3582 52.2039 18.5537C51.5456 19.6457 50.9147 20.6096 50.3489 21.378L49.8038 20.3467C49.8038 20.3467 50.3489 19.7434 51.2542 18.402C47.4001 14.3543 48.2025 11.6681 48.6482 10.3874C49.1283 13.9768 49.9066 16.0361 51.6999 17.728C52.3582 16.7068 53.1537 15.3654 54.0452 13.6634C50.0061 9.59203 50.757 8.08549 51.2061 6.78455C51.6965 10.438 52.5571 11.3143 54.4293 12.9185C55.0636 11.6648 55.7425 10.2358 56.442 8.61463C53.7229 6.14082 54.5081 4.67136 54.8133 3.79845C55.1287 6.15767 55.5813 6.84859 56.7026 8.00461C57.6352 5.80042 58.609 3.2693 59.5793 0.367459L59.5759 0.370829Z" fill="#95CC64"/>
  </g>
  <defs>
    <clipPath id="clip0_3_3345">
      <rect width="76" height="65" fill="white"/>
    </clipPath>
  </defs>
</svg>