<svg width="311" height="331" viewBox="0 0 311 331" fill="none" xmlns="http://www.w3.org/2000/svg">
<circle opacity="0.2" cx="155.5" cy="155.5" r="155.5" fill="#FFDA52"/>
<g clip-path="url(#clip0_385_160)">
<path d="M101.86 190.78L35.7017 205.521L29.396 190.353L98.3913 175.082L101.86 190.78Z" fill="#F18E38"/>
<path d="M49.2831 254.071C50.165 256.749 53.3399 255.542 52.5756 252.835L34.4228 187.867C33.6585 185.16 31.3802 183.395 29.3812 183.939C27.3822 184.483 26.4562 187.102 27.3381 189.78L49.2831 254.071Z" fill="#F18E38"/>
<path d="M114.795 240.448C115.677 243.125 118.852 241.919 118.087 239.212L99.9346 174.244C99.1702 171.537 96.8919 169.771 94.8929 170.316C92.8939 170.86 91.9679 173.479 92.8498 176.156L114.795 240.448Z" fill="#F18E38"/>
<path d="M109.077 299.296C107.254 301.223 105.182 302.312 104.491 301.708C103.786 301.105 104.638 298.972 106.387 296.957L158.964 236.402C160.699 234.401 163.344 233.813 164.814 235.093C166.299 236.373 166.005 239.006 164.182 240.933L109.077 299.296Z" fill="#F18E38"/>
<path d="M146.926 305.416C148.205 307.917 149.998 309.653 150.895 309.256C151.791 308.858 151.571 306.446 150.395 303.886L114.912 226.766C113.736 224.206 111.223 222.808 109.327 223.647C107.431 224.485 106.916 227.222 108.21 229.737L146.941 305.431L146.926 305.416Z" fill="#F18E38"/>
<path d="M45.682 317.936C43.8594 319.863 41.7869 320.952 41.0961 320.349C40.3905 319.745 41.243 317.612 42.9922 315.597L95.5691 255.042C97.3035 253.041 99.9493 252.453 101.419 253.733C102.904 255.013 102.61 257.646 100.787 259.573L45.682 317.936Z" fill="#F18E38"/>
<path d="M83.5309 324.056C84.8097 326.557 86.6029 328.293 87.4995 327.896C88.3961 327.499 88.1757 325.086 86.9998 322.526L51.5173 245.406C50.3415 242.846 47.828 241.448 45.9319 242.287C44.0358 243.125 43.5213 245.862 44.8148 248.378L83.5456 324.071L83.5309 324.056Z" fill="#F18E38"/>
<path d="M123.526 217.026L38.8765 239.197L56.6765 242.949L138.342 221.204L123.526 217.026Z" fill="#F18E38"/>
<path d="M149.689 224.397L64.9077 246.612L82.7077 250.364L164.505 228.59L149.689 224.397Z" fill="#F18E38"/>
<path d="M92.0266 252.997L109.827 256.749L189.302 235.578L174.471 231.4L92.0266 252.997Z" fill="#F18E38"/>
<path d="M38.5826 238.829C41.6693 239.55 109.812 253.953 113.619 255.307C115.545 255.998 115.956 262.442 114.442 262.31C104.741 261.427 38.7296 246.112 36.9364 245.832C35.1578 245.553 34.467 237.873 38.5826 238.829Z" fill="#F18E38"/>
<path d="M110.797 256.131C110.797 256.131 184.04 235.534 186.715 234.916C189.39 234.298 193.506 238.829 191.242 239.859C188.979 240.889 116.485 262.31 114.427 262.31C112.37 262.31 111.414 261.28 110.385 259.838C109.356 258.396 108.945 256.955 110.797 256.131Z" fill="#F18E38"/>
<path d="M49.5184 244.67C49.5184 245.921 48.5042 246.936 47.2548 246.936C46.0054 246.936 44.9912 245.921 44.9912 244.67C44.9912 243.42 46.0054 242.405 47.2548 242.405C48.5042 242.405 49.5184 243.42 49.5184 244.67Z" fill="black"/>
<path d="M100.537 256.278C100.537 257.528 99.523 258.544 98.2736 258.544C97.0242 258.544 96.01 257.528 96.01 256.278C96.01 255.027 97.0242 254.012 98.2736 254.012C99.523 254.012 100.537 255.027 100.537 256.278Z" fill="black"/>
<path d="M70.4639 289.13C70.4639 290.13 69.6554 290.954 68.6412 290.954C67.627 290.954 66.8186 290.145 66.8186 289.13C66.8186 288.115 67.627 287.305 68.6412 287.305C69.6554 287.305 70.4639 288.115 70.4639 289.13Z" fill="black"/>
<path d="M134.109 270.681C134.109 271.681 133.3 272.505 132.286 272.505C131.272 272.505 130.464 271.696 130.464 270.681C130.464 269.666 131.272 268.857 132.286 268.857C133.3 268.857 134.109 269.666 134.109 270.681Z" fill="black"/>
<path d="M109.18 138.7C120.689 139.229 132.433 137.67 139.841 135.404C147.249 133.138 153.834 129.225 154.452 132.109C155.069 134.992 159.185 136.022 152.806 140.553C146.426 145.085 123.379 153.323 114.942 154.353C106.505 155.383 104.653 138.494 109.18 138.7Z" fill="#FFDBB0"/>
<path d="M87.4702 104.215C87.9699 104.274 97.0831 103.612 97.7151 103.626C97.8474 104.774 97.1565 112.659 100.817 115.366C110.826 122.781 125.216 145.585 123.614 150.749C123.085 153.485 99.9787 163.445 94.5255 162.916C88.6754 162.356 72.36 169.624 69.5526 162.842C63.0117 147.1 71.9337 130.255 84.4423 114.322C85.7063 112.718 87.382 104.965 87.4702 104.215Z" fill="#FFDBB0"/>
<path d="M77.872 99.9189C81.091 106.642 86.6177 110.306 91.4682 110.732C96.3334 111.159 101.008 109.997 105.402 107.613C108.974 105.053 111.84 100.919 112.546 99.095C113.193 97.4178 113.487 95.3876 113.413 93.4162C113.266 88.8113 116.412 89.1644 113.972 79.7046C113.237 76.8358 108.283 63.492 95.2457 61.653C83.7808 60.02 71.1253 85.8542 77.8573 99.9336L77.872 99.9189Z" fill="#FFDBB0"/>
<path d="M93.1879 60.0641C91.6151 60.3142 90.8067 60.2112 88.161 58.7841C85.5152 57.3571 82.4873 55.9888 79.2389 56.4891C75.9905 57.004 73.8151 58.2545 72.7421 59.4903C71.6691 60.7261 68.7147 64.2128 68.9793 67.7437C69.2292 71.2746 68.3766 73.6138 66.7451 75.3645C65.1136 77.1153 64.3933 84.7802 65.2017 86.8546C66.0102 88.929 68.4207 92.0626 69.8465 93.3279C71.2723 94.5931 73.0508 104.906 79.1654 105.259C83.281 105.495 83.2075 111.291 88.0581 107.599C90.5127 105.715 85.1625 103.906 88.4255 100.993C91.9091 97.8886 82.7078 95.211 86.2942 91.0916C89.3369 87.5902 92.5265 94.8285 94.0992 94.9168C95.5985 95.005 96.5392 91.7243 97.6416 87.1194C98.3324 84.2506 101.302 82.1026 104.579 82.2939C106.564 82.4116 109.224 84.4124 112.076 81.9702C114.927 79.528 116.867 76.9828 114.369 73.0253C111.87 69.0531 108.548 68.8324 108.283 65.1985C108.019 61.5647 106.226 57.6219 101.14 57.769C96.0541 57.9014 95.0252 59.505 93.1732 60.0641H93.1879Z" fill="black"/>
<path d="M170.488 295.603C174.06 295.986 174.853 308.711 177.293 312.036C179.733 315.361 188.067 323.703 185.76 326.513C183.452 329.323 178.087 334.428 171.605 327.602C165.123 320.775 160.302 309.756 162.359 305.607C164.417 301.458 170.503 295.603 170.503 295.603H170.488Z" fill="#FFDBB0"/>
<path d="M193.682 258.985C189.199 261.927 185.04 267.356 188.714 271.976C192.374 276.595 195.843 281.891 204.647 282.598C213.452 283.304 220.228 279.949 226.431 273.726C232.619 267.503 225.902 267.047 217.597 267.091C209.292 267.135 200.885 265.076 193.697 258.985H193.682Z" fill="#FFDBB0"/>
<path d="M96.7745 206.684C105.314 206.684 111.003 211.671 121.071 204.933C132.242 197.459 144.119 196.694 157.289 193.399C169.136 190.427 173.78 207.625 181.982 221.131C190.493 235.137 195.02 243.272 199.547 252.703C203.281 260.485 203.119 263.693 199.003 265.885C191.904 269.666 186.701 275.227 181.438 263.134C173.678 245.303 160.934 226.045 165.255 248.024C168.269 263.398 179.528 306.24 174.31 307.343C164.094 309.491 155.878 312.272 154.011 305.151C151.909 297.133 145.339 270.902 142.487 260.662C136.446 238.962 126.848 247.76 117.25 246.936C108.239 246.156 101.066 244.464 90.3659 238.153C82.1788 233.312 57.1764 219.204 66.2308 210.421C73.8594 203.02 88.264 206.684 96.8039 206.684H96.7745Z" fill="black"/>
<path d="M61.1009 218.527C62.8941 205.374 68.2003 204.786 69.3909 196.4C71.1106 184.41 63.9377 186.469 58.7638 183.38C51.7526 179.202 55.1186 162.695 59.3812 151.867C63.1734 142.216 68.1268 132.064 73.3742 126.121C79.5476 119.118 74.5942 113.351 82.4286 113.351C86.1326 113.351 90.454 114.999 92.9234 117.058C97.4506 119.942 106.299 123.855 110.826 126.327C118.102 130.299 133.859 157.428 130.89 161.371C127.318 166.108 138.019 182.026 143.869 185.984C151.541 191.177 155.907 197.253 135.211 208.655C124.878 217.085 116.676 214.084 109.018 218.806C104.241 221.749 102.242 236.49 77.2547 228.531C69.9201 226.913 58.6462 236.623 61.1009 218.527Z" fill="#7DBCE8"/>
<path d="M110.753 132.947L102.918 131.211C96.7891 129.843 95.6573 128.489 94.9812 124.532C94.8195 123.634 94.5696 123.075 94.2168 122.869C93.6289 122.531 92.4677 122.972 91.1154 123.473C90.5569 123.679 89.9542 123.899 89.3222 124.105C86.3678 125.047 84.8391 123.811 82.2963 121.766C81.4584 121.089 80.5177 120.339 79.3565 119.5C79.092 119.309 79.0185 118.927 79.2095 118.662C79.4006 118.382 79.7828 118.323 80.0474 118.515C81.238 119.368 82.2081 120.133 83.0459 120.824C85.4859 122.796 86.6176 123.693 88.94 122.958C89.5574 122.766 90.1306 122.546 90.6745 122.34C92.3795 121.707 93.7171 121.207 94.7901 121.825C95.4956 122.222 95.9219 123.017 96.1423 124.326C96.745 127.827 97.4652 128.769 103.154 130.034L110.988 131.77C111.311 131.844 111.517 132.167 111.444 132.491C111.37 132.815 111.047 133.021 110.723 132.947H110.753Z" fill="white"/>
<path d="M89.1457 140.656C89.9101 142.583 95.7307 139.362 96.6567 143.275C97.0389 144.879 95.0252 143.422 95.3192 147.453C95.569 150.763 89.2927 146.217 89.9101 149.395C90.4392 152.102 91.233 156.324 88.0874 157.899C84.9419 159.473 86.2354 156.119 84.8684 156.074C83.9865 156.045 81.7523 156.06 83.0017 151.602C84.5451 146.1 81.8993 149.822 78.1512 149.925C74.403 150.028 71.6544 148.159 72.7862 146.409C73.918 144.658 73.8004 143.908 72.7862 143.054C71.772 142.201 71.6544 139.509 73.918 139.906C76.1816 140.303 77.9013 143.128 79.621 140.686C81.3408 138.243 75.4319 136.537 78.4305 135.154C81.4143 133.771 82.7225 134.536 83.8395 135.904C84.9566 137.272 85.6622 134.624 88.0287 133.477C90.3951 132.329 88.2932 135.684 90.0277 136.228C92.497 137.008 89.0135 138.611 89.131 140.656H89.1457Z" fill="white"/>
<path d="M80.9586 142.628C81.5612 143.51 82.0022 144.481 82.2962 145.496C82.3696 145.761 83.0899 145.732 83.0017 145.408C82.693 144.349 82.2227 143.349 81.5906 142.436C81.4436 142.216 80.7381 142.319 80.9586 142.628Z" fill="black"/>
<path d="M84.0746 139.126C84.2069 140.789 84.1628 142.451 83.9276 144.099C83.8982 144.275 84.6331 144.334 84.6625 144.128C84.883 142.48 84.9418 140.818 84.8095 139.156C84.7948 138.95 84.0746 138.95 84.0746 139.126Z" fill="black"/>
<path d="M88.1314 140.906C87.2348 140.95 86.4998 141.524 86.0442 142.26C85.515 143.113 85.2064 144.114 84.9712 145.085C84.9124 145.29 85.6326 145.379 85.7061 145.114C85.9266 144.246 86.2059 143.378 86.6321 142.598C86.9849 141.966 87.5434 141.289 88.3225 141.245C88.4254 141.245 88.6458 141.186 88.587 141.039C88.5282 140.892 88.2637 140.892 88.1461 140.892L88.1314 140.906Z" fill="black"/>
<path d="M134.726 193.708C134.138 195.694 140.723 196.738 139.048 200.387C138.357 201.888 137.666 199.504 135.432 202.859C133.594 205.624 131.434 198.165 129.979 201.078C128.729 203.55 126.774 207.36 123.32 206.669C119.866 205.977 122.938 204.124 121.909 203.256C121.233 202.682 119.469 201.328 123.188 198.577C127.789 195.179 123.408 196.503 120.395 194.267C117.382 192.031 116.353 188.882 118.323 188.191C120.292 187.514 120.66 186.837 120.366 185.543C120.072 184.248 121.645 182.056 123.188 183.748C124.731 185.44 124.349 188.75 127.215 187.867C130.067 186.999 126.466 182.026 129.67 182.762C132.874 183.512 133.433 184.91 133.477 186.675C133.521 188.441 135.696 186.793 138.269 187.337C140.841 187.882 137.122 189.25 138.166 190.751C139.636 192.884 135.902 192.001 134.741 193.693L134.726 193.708Z" fill="white"/>
<path d="M127.053 190.221C126.98 191.28 126.745 192.325 126.348 193.311C126.245 193.575 126.833 193.987 126.965 193.678C127.377 192.648 127.612 191.56 127.686 190.456C127.7 190.177 127.083 189.838 127.068 190.221H127.053Z" fill="black"/>
<path d="M131.654 189.368C130.743 190.751 129.685 192.045 128.494 193.207C128.362 193.325 128.906 193.825 129.052 193.678C130.243 192.516 131.301 191.236 132.213 189.838C132.33 189.662 131.757 189.221 131.654 189.368Z" fill="black"/>
<path d="M133.771 193.281C133.036 192.766 132.11 192.766 131.287 193.075C130.346 193.428 129.479 194.031 128.7 194.635C128.523 194.767 129.052 195.267 129.258 195.105C129.949 194.561 130.713 194.046 131.537 193.693C132.198 193.399 133.051 193.222 133.697 193.664C133.785 193.722 133.991 193.811 134.035 193.664C134.079 193.516 133.859 193.34 133.771 193.281Z" fill="black"/>
<path d="M90.4688 197.768C91.8798 199.284 96.1424 194.164 98.4207 197.474C99.3614 198.842 96.9508 198.21 98.7 201.843C100.14 204.845 92.6295 202.873 94.3786 205.624C95.8632 207.964 98.1267 211.598 95.7603 214.216C93.3938 216.82 93.3791 213.245 92.1003 213.687C91.2625 213.966 89.19 214.805 88.7343 210.2C88.1758 204.506 87.0587 208.935 83.6045 210.391C80.1503 211.848 76.9166 211.112 77.3282 209.067C77.7545 207.022 77.3576 206.375 76.1082 205.948C74.8588 205.521 73.7564 203.065 76.02 202.594C78.2689 202.123 80.9 204.153 81.6202 201.255C82.3404 198.357 76.2111 198.916 78.4894 196.532C80.7677 194.164 82.2669 194.399 83.7956 195.267C85.3389 196.135 85.0303 193.414 86.8088 191.486C88.5873 189.559 87.8671 193.443 89.675 193.325C92.262 193.149 89.5868 195.915 90.4541 197.768H90.4688Z" fill="white"/>
<path d="M83.5457 202.579C84.4129 203.182 85.1919 203.918 85.8387 204.771C86.0151 204.992 86.6618 204.698 86.4707 204.433C85.7946 203.55 84.9862 202.8 84.0748 202.167C83.8544 202.02 83.237 202.358 83.5457 202.579Z" fill="black"/>
<path d="M85.1772 198.18C85.8974 199.681 86.456 201.255 86.8528 202.873C86.8969 203.05 87.5878 202.844 87.5437 202.638C87.1615 201.02 86.5883 199.445 85.868 197.945C85.7798 197.754 85.1037 198.018 85.1772 198.18Z" fill="black"/>
<path d="M89.6161 198.371C88.793 198.739 88.3226 199.534 88.161 200.402C87.9846 201.387 88.0581 202.432 88.1757 203.418C88.205 203.638 88.8959 203.447 88.8665 203.182C88.7489 202.3 88.7048 201.387 88.8077 200.505C88.8959 199.784 89.1752 198.96 89.8954 198.636C89.9836 198.592 90.1747 198.46 90.0718 198.357C89.9689 198.239 89.7043 198.342 89.6014 198.386L89.6161 198.371Z" fill="black"/>
<path d="M161.19 122.42L156.714 118.955L139.394 141.369L143.871 144.834L161.19 122.42Z" fill="#F18E38"/>
<path d="M138.034 172.419C137.813 167.211 137.872 164.063 145.383 159.811C152.747 155.648 155.672 144.761 145.985 137.434C136.446 129.887 126.657 135.463 124.496 143.643C122.277 151.999 119.249 152.838 114.148 153.941C109.063 155.045 103.477 158.267 101.713 166.594C100.229 173.67 103.462 179.775 108.754 184.248C108.974 184.424 109.18 184.601 109.401 184.778C109.621 184.954 109.842 185.116 110.077 185.278C115.736 189.279 122.438 190.883 128.906 187.661C136.52 183.865 138.239 177.642 138.019 172.434L138.034 172.419Z" fill="#F18E38"/>
<path d="M135.27 162.445C132.962 165.431 128.685 165.976 125.716 163.666C122.732 161.356 122.188 157.075 124.496 154.103C126.804 151.117 131.081 150.572 134.05 152.882C137.019 155.192 137.578 159.473 135.27 162.445Z" fill="black"/>
<path d="M126.604 172.977L116.489 165.146L115.203 166.811L125.318 174.641L126.604 172.977Z" fill="black"/>
<path d="M160.831 123.664C160.023 124.385 158.656 124.444 157.788 123.782L156.216 122.561C155.348 121.899 155.054 120.56 155.554 119.589L160.39 110.217C160.89 109.246 162.007 108.996 162.859 109.673L168.562 114.087C169.43 114.749 169.459 115.896 168.651 116.617L160.802 123.664H160.831Z" fill="#F18E38"/>
<path d="M162.549 117.503L162.212 117.242L120.657 171.037L120.994 171.298L162.549 117.503Z" fill="black"/>
<path d="M161.836 113.803L161.499 113.542L118.405 169.27L118.742 169.531L161.836 113.803Z" fill="black"/>
<path d="M161.431 116.632L161.094 116.371L119.54 170.166L119.877 170.427L161.431 116.632Z" fill="black"/>
<path d="M165.357 116.209L165.02 115.948L121.763 171.885L122.1 172.147L165.357 116.209Z" fill="black"/>
<path d="M161.757 116.882C161.551 117.147 161.154 117.205 160.89 116.999C160.625 116.793 160.566 116.396 160.772 116.131C160.978 115.867 161.375 115.808 161.639 116.014C161.904 116.22 161.963 116.617 161.757 116.882Z" fill="black"/>
<path d="M162.874 117.735C162.668 118 162.271 118.059 162.007 117.853C161.742 117.647 161.683 117.25 161.889 116.985C162.095 116.72 162.492 116.661 162.756 116.867C163.021 117.073 163.08 117.47 162.874 117.735Z" fill="black"/>
<path d="M162.58 113.704C162.33 114.028 161.86 114.086 161.537 113.836C161.213 113.586 161.154 113.116 161.404 112.792C161.654 112.468 162.125 112.409 162.448 112.659C162.771 112.91 162.83 113.38 162.58 113.704Z" fill="black"/>
<path d="M165.961 116.279C165.711 116.602 165.241 116.661 164.917 116.411C164.594 116.161 164.535 115.69 164.785 115.366C165.035 115.043 165.505 114.984 165.828 115.234C166.152 115.484 166.211 115.955 165.961 116.279Z" fill="black"/>
<path d="M98.8911 171.655C102.287 170.272 105.065 168.374 105.799 166.917C106.549 165.461 108.695 162.151 110.033 160.194C111.37 158.222 112.811 157.855 113.634 158.87C114.457 159.885 113.075 161.283 111.929 164.519C110.797 167.771 112.311 166.741 114.178 166.829C116.044 166.903 124.511 164.946 126.569 165.181C128.612 165.417 131.096 165.343 131.243 167.167C131.404 168.992 127.642 168.491 126.877 169.624C126.113 170.757 127.406 171.331 128.729 172.934C130.067 174.538 128.832 174.965 127.127 176.274C125.422 177.583 124.966 177.23 124.467 178.981C123.967 180.732 123.394 180.805 121.747 181.114C120.101 181.423 115.824 179.996 112.076 179.055C108.328 178.113 106.432 178.878 103.11 179.658C96.1572 181.276 86.1915 182.026 86.9559 181.953C85.0597 182.262 70.4934 181.129 72.3454 176.598C72.9922 175.024 74.9471 168.756 75.8437 167.123C77.0784 164.858 85.7359 169.595 89.8368 170.213C93.5408 171.655 98.362 171.875 98.8911 171.655Z" fill="#FFDBB0"/>
<path d="M162.051 133.889C160.081 135.978 157.715 138.656 155.172 138.391C153.144 138.185 151.35 137.376 150.307 135.051C149.175 132.55 153.07 133.33 152.173 130.226C150.674 125.003 154.143 126.224 154.76 124.709C155.833 122.06 155.936 121.531 159.288 123.37C161.713 124.694 162.374 122.678 163.58 123.929C164.8 125.194 164.932 130.814 162.051 133.874V133.889Z" fill="#FFDBB0"/>
<path d="M214.686 68.4499C214.187 68.3763 213.672 68.6117 213.231 68.9795C212.673 69.3473 212.232 69.8916 212.158 70.5242C211.703 74.4376 210.938 78.2922 210.35 82.1908C208.219 81.5288 205.897 81.6906 203.78 82.4557C202.869 82.6616 202.016 83.103 201.296 83.7062C198.43 85.604 196.416 88.7524 196.666 92.4598C196.945 96.6086 202.384 96.5939 205.176 95.5052C205.617 95.3286 206.044 95.1227 206.455 94.8726C208.88 93.6074 210.071 92.8129 211.703 90.4884C212.438 89.2379 213.378 85.3392 213.437 84.7949C213.907 80.7196 214.716 76.6886 215.318 72.6281C219.89 74.7907 220.14 81.3376 217.905 85.6923C216.656 88.1051 220.243 87.7814 221.154 86.016C224.535 79.4544 223.197 69.6268 214.701 68.4499H214.686Z" fill="black"/>
<path d="M228.444 39.9821C230.149 35.4803 230.473 30.3899 234.677 27.3004C235.191 26.9326 235.088 26.1823 234.427 25.6821C227.842 20.8271 221.433 15.6485 213.819 12.3089C211.806 11.4115 210.233 12.7208 211.57 13.8831C211.497 13.9566 211.438 14.0302 211.394 14.1185C209.498 18.0466 207.058 21.6363 205.426 25.6821C200.635 22.8574 195.519 21.8128 191.198 24.1962C190.889 24.3727 190.786 24.7552 190.919 25.123C193.565 32.4202 209.792 36.9515 208.366 29.6838C208.675 29.6102 208.91 29.4484 208.998 29.1688C210.556 24.4463 213.393 20.4152 215.554 15.9869C220.728 18.7527 225.372 22.3866 230.032 25.8734C226.636 28.9482 225.96 33.1999 224.52 37.3928C221.58 36.2306 218.449 35.6274 216.083 36.9221C213.863 38.1431 211.791 41.1444 213.981 43.9838C219.287 50.8249 230.826 46.9262 228.43 40.0263L228.444 39.9821Z" fill="black"/>
<path d="M171.664 35.2302C171.237 35.6421 171.487 44.4252 171.517 44.9843C171.722 48.5151 171.649 52.046 171.737 55.5769C169.753 55.3268 167.724 55.827 165.961 56.8421C165.182 57.1658 164.505 57.6954 163.962 58.3427C161.727 60.476 160.434 63.5802 161.228 66.8021C162.124 70.4213 166.931 69.568 169.224 68.1704C169.591 67.9497 169.929 67.6849 170.253 67.4053C172.193 65.9047 173.134 65.0073 174.221 62.7122C174.662 61.4911 174.897 57.9014 174.868 57.4012C174.647 53.7232 174.794 45.3226 174.692 41.6446C174.986 34.5976 172.075 33.7884 171.649 35.2155L171.664 35.2302Z" fill="black"/>
</g>
<defs>
<clipPath id="clip0_385_160">
<rect width="208" height="319" fill="white" transform="translate(27 12)"/>
</clipPath>
</defs>
</svg>
